<svg width="363" height="214" viewBox="0 0 363 214" fill="none" xmlns="http://www.w3.org/2000/svg">
<g opacity="0.19">
<ellipse cx="10.8343" cy="10.2132" rx="10.8343" ry="10.2132" fill="#1C1C1C"/>
<ellipse cx="103.699" cy="10.2133" rx="10.8343" ry="10.2132" fill="#1C1C1C"/>
<ellipse cx="196.562" cy="10.2133" rx="10.8343" ry="10.2132" fill="#1C1C1C"/>
<ellipse cx="289.432" cy="10.2133" rx="10.8343" ry="10.2132" fill="#1C1C1C"/>
<ellipse cx="41.7908" cy="10.2133" rx="10.8343" ry="10.2132" fill="#1C1C1C"/>
<ellipse cx="134.655" cy="10.2132" rx="10.8343" ry="10.2132" fill="#1C1C1C"/>
<ellipse cx="227.519" cy="10.2132" rx="10.8343" ry="10.2132" fill="#1C1C1C"/>
<ellipse cx="320.383" cy="10.2133" rx="10.8343" ry="10.2132" fill="#1C1C1C"/>
<ellipse cx="72.742" cy="10.2133" rx="10.8343" ry="10.2132" fill="#1C1C1C"/>
<ellipse cx="165.612" cy="10.2133" rx="10.8343" ry="10.2132" fill="#1C1C1C"/>
<ellipse cx="258.475" cy="10.2133" rx="10.8343" ry="10.2132" fill="#1C1C1C"/>
<ellipse cx="351.34" cy="10.2132" rx="10.8343" ry="10.2132" fill="#1C1C1C"/>
<ellipse cx="10.8343" cy="48.9169" rx="10.8343" ry="10.2132" fill="#1C1C1C"/>
<ellipse cx="103.699" cy="48.9169" rx="10.8343" ry="10.2132" fill="#1C1C1C"/>
<ellipse cx="196.562" cy="48.9169" rx="10.8343" ry="10.2132" fill="#1C1C1C"/>
<ellipse cx="289.432" cy="48.9169" rx="10.8343" ry="10.2132" fill="#1C1C1C"/>
<ellipse cx="41.7908" cy="48.9169" rx="10.8343" ry="10.2132" fill="#1C1C1C"/>
<ellipse cx="134.655" cy="48.9169" rx="10.8343" ry="10.2132" fill="#1C1C1C"/>
<ellipse cx="227.519" cy="48.9169" rx="10.8343" ry="10.2132" fill="#1C1C1C"/>
<ellipse cx="320.383" cy="48.9169" rx="10.8343" ry="10.2132" fill="#1C1C1C"/>
<ellipse cx="72.742" cy="48.9169" rx="10.8343" ry="10.2132" fill="#1C1C1C"/>
<ellipse cx="165.612" cy="48.9169" rx="10.8343" ry="10.2132" fill="#1C1C1C"/>
<ellipse cx="258.475" cy="48.9169" rx="10.8343" ry="10.2132" fill="#1C1C1C"/>
<ellipse cx="351.34" cy="48.9169" rx="10.8343" ry="10.2132" fill="#1C1C1C"/>
<ellipse cx="10.8343" cy="87.6203" rx="10.8343" ry="10.2132" fill="#1C1C1C"/>
<ellipse cx="103.699" cy="87.6205" rx="10.8343" ry="10.2132" fill="#1C1C1C"/>
<ellipse cx="196.562" cy="87.6205" rx="10.8343" ry="10.2132" fill="#1C1C1C"/>
<ellipse cx="289.432" cy="87.6205" rx="10.8343" ry="10.2132" fill="#1C1C1C"/>
<ellipse cx="41.7908" cy="87.6205" rx="10.8343" ry="10.2132" fill="#1C1C1C"/>
<ellipse cx="134.655" cy="87.6201" rx="10.8343" ry="10.2132" fill="#1C1C1C"/>
<ellipse cx="227.519" cy="87.6201" rx="10.8343" ry="10.2132" fill="#1C1C1C"/>
<ellipse cx="320.383" cy="87.6205" rx="10.8343" ry="10.2132" fill="#1C1C1C"/>
<ellipse cx="72.742" cy="87.6205" rx="10.8343" ry="10.2132" fill="#1C1C1C"/>
<ellipse cx="165.612" cy="87.6205" rx="10.8343" ry="10.2132" fill="#1C1C1C"/>
<ellipse cx="258.475" cy="87.6205" rx="10.8343" ry="10.2132" fill="#1C1C1C"/>
<ellipse cx="351.34" cy="87.6201" rx="10.8343" ry="10.2132" fill="#1C1C1C"/>
<ellipse cx="10.8343" cy="126.326" rx="10.8343" ry="10.2132" fill="#1C1C1C"/>
<ellipse cx="103.699" cy="126.326" rx="10.8343" ry="10.2132" fill="#1C1C1C"/>
<ellipse cx="196.562" cy="126.326" rx="10.8343" ry="10.2132" fill="#1C1C1C"/>
<ellipse cx="289.432" cy="126.326" rx="10.8343" ry="10.2132" fill="#1C1C1C"/>
<ellipse cx="41.7908" cy="126.326" rx="10.8343" ry="10.2132" fill="#1C1C1C"/>
<ellipse cx="134.655" cy="126.326" rx="10.8343" ry="10.2132" fill="#1C1C1C"/>
<ellipse cx="227.519" cy="126.326" rx="10.8343" ry="10.2132" fill="#1C1C1C"/>
<ellipse cx="320.383" cy="126.326" rx="10.8343" ry="10.2132" fill="#1C1C1C"/>
<ellipse cx="72.742" cy="126.326" rx="10.8343" ry="10.2132" fill="#1C1C1C"/>
<ellipse cx="165.612" cy="126.326" rx="10.8343" ry="10.2132" fill="#1C1C1C"/>
<ellipse cx="258.475" cy="126.326" rx="10.8343" ry="10.2132" fill="#1C1C1C"/>
<ellipse cx="351.34" cy="126.326" rx="10.8343" ry="10.2132" fill="#1C1C1C"/>
<ellipse cx="10.8343" cy="165.03" rx="10.8343" ry="10.2132" fill="#1C1C1C"/>
<ellipse cx="103.699" cy="165.03" rx="10.8343" ry="10.2132" fill="#1C1C1C"/>
<ellipse cx="196.562" cy="165.03" rx="10.8343" ry="10.2132" fill="#1C1C1C"/>
<ellipse cx="289.432" cy="165.03" rx="10.8343" ry="10.2132" fill="#1C1C1C"/>
<ellipse cx="41.7908" cy="165.03" rx="10.8343" ry="10.2132" fill="#1C1C1C"/>
<ellipse cx="134.655" cy="165.03" rx="10.8343" ry="10.2132" fill="#1C1C1C"/>
<ellipse cx="227.519" cy="165.03" rx="10.8343" ry="10.2132" fill="#1C1C1C"/>
<ellipse cx="320.383" cy="165.03" rx="10.8343" ry="10.2132" fill="#1C1C1C"/>
<ellipse cx="72.742" cy="165.03" rx="10.8343" ry="10.2132" fill="#1C1C1C"/>
<ellipse cx="165.612" cy="165.03" rx="10.8343" ry="10.2132" fill="#1C1C1C"/>
<ellipse cx="258.475" cy="165.03" rx="10.8343" ry="10.2132" fill="#1C1C1C"/>
<ellipse cx="351.34" cy="165.03" rx="10.8343" ry="10.2132" fill="#1C1C1C"/>
<ellipse cx="10.8343" cy="203.735" rx="10.8343" ry="10.2132" fill="#1C1C1C"/>
<ellipse cx="103.699" cy="203.735" rx="10.8343" ry="10.2132" fill="#1C1C1C"/>
<ellipse cx="196.562" cy="203.735" rx="10.8343" ry="10.2132" fill="#1C1C1C"/>
<ellipse cx="289.432" cy="203.735" rx="10.8343" ry="10.2132" fill="#1C1C1C"/>
<ellipse cx="41.7908" cy="203.735" rx="10.8343" ry="10.2132" fill="#1C1C1C"/>
<ellipse cx="134.655" cy="203.734" rx="10.8343" ry="10.2132" fill="#1C1C1C"/>
<ellipse cx="227.519" cy="203.734" rx="10.8343" ry="10.2132" fill="#1C1C1C"/>
<ellipse cx="320.383" cy="203.735" rx="10.8343" ry="10.2132" fill="#1C1C1C"/>
<ellipse cx="72.742" cy="203.735" rx="10.8343" ry="10.2132" fill="#1C1C1C"/>
<ellipse cx="165.612" cy="203.735" rx="10.8343" ry="10.2132" fill="#1C1C1C"/>
<ellipse cx="258.475" cy="203.735" rx="10.8343" ry="10.2132" fill="#1C1C1C"/>
<ellipse cx="351.34" cy="203.734" rx="10.8343" ry="10.2132" fill="#1C1C1C"/>
</g>
</svg>
