<?xml version="1.0" encoding="UTF-8"?>
<!DOCTYPE svg PUBLIC "-//W3C//DTD SVG 1.1//EN" "http://www.w3.org/Graphics/SVG/1.1/DTD/svg11.dtd">
<svg xmlns="http://www.w3.org/2000/svg" version="1.1" width="100px" height="100px" style="shape-rendering:geometricPrecision; text-rendering:geometricPrecision; image-rendering:optimizeQuality; fill-rule:evenodd; clip-rule:evenodd" xmlns:xlink="http://www.w3.org/1999/xlink">
<g><path style="opacity:0.889" fill="#073894" d="M 96.5,32.5 C 94.3477,34.9848 91.6811,36.6515 88.5,37.5C 75.7123,30.6899 62.879,24.0233 50,17.5C 36.7721,23.5296 23.9388,30.1963 11.5,37.5C 7.96589,36.6296 5.29922,34.6296 3.5,31.5C 15.7712,24.6945 28.1045,17.8612 40.5,11C 44.3871,7.97017 48.7205,6.97017 53.5,8C 67.8959,16.1938 82.2293,24.3605 96.5,32.5 Z"/></g>
<g><path style="opacity:0.867" fill="#0c5df2" d="M 3.5,31.5 C 5.29922,34.6296 7.96589,36.6296 11.5,37.5C 14.8029,40.1582 18.1362,42.8249 21.5,45.5C 19.6035,47.0167 17.6035,48.3501 15.5,49.5C 10.4376,48.3846 5.93762,46.0512 2,42.5C -0.302974,38.3317 0.197026,34.665 3.5,31.5 Z"/></g>
<g><path style="opacity:0.884" fill="#0c5df3" d="M 96.5,32.5 C 99.5661,37.1133 98.8994,41.28 94.5,45C 82.232,52.272 70.232,59.9387 58.5,68C 53.348,72.062 48.0146,72.3953 42.5,69C 36.7247,65.716 31.3913,61.8826 26.5,57.5C 28.5313,55.4776 30.8646,53.8109 33.5,52.5C 38.3331,55.0821 42.9998,57.9155 47.5,61C 48.8333,61.6667 50.1667,61.6667 51.5,61C 64.0072,53.3036 76.3405,45.4703 88.5,37.5C 91.6811,36.6515 94.3477,34.9848 96.5,32.5 Z"/></g>
<g><path style="opacity:0.812" fill="#073894" d="M 24.5,55.5 C 21.4777,53.7893 18.8111,51.7893 16.5,49.5C 25.3428,46.4954 34.0094,42.9954 42.5,39C 45.6745,38.1712 46.6745,39.1712 45.5,42C 38.3481,46.3292 31.3481,50.8292 24.5,55.5 Z"/></g>
<g><path style="opacity:0.854" fill="#0c5df3" d="M 15.5,49.5 C 15.8333,49.5 16.1667,49.5 16.5,49.5C 18.8111,51.7893 21.4777,53.7893 24.5,55.5C 24.6665,66.8382 24.4999,78.1716 24,89.5C 21.7076,90.6009 20.2076,89.7676 19.5,87C 18.1667,87 16.8333,87 15.5,87C 15.4896,74.5001 15.4896,62.0001 15.5,49.5 Z"/></g>
<g><path style="opacity:0.843" fill="#073794" d="M 81.5,63.5 C 83.0265,64.4919 83.6932,65.9919 83.5,68C 83.4411,69.4357 83.1078,70.769 82.5,72C 73.0011,78.2505 63.3344,84.2505 53.5,90C 50.8333,90.6667 48.1667,90.6667 45.5,90C 41.633,87.3021 37.633,84.8021 33.5,82.5C 32.7792,80.314 32.1125,78.1474 31.5,76C 32.5929,74.6346 33.9262,74.3013 35.5,75C 40.0382,78.0998 44.7049,80.9332 49.5,83.5C 60.5289,77.3239 71.1956,70.6572 81.5,63.5 Z"/></g>
</svg>
