<svg width="36" height="36" viewBox="0 0 36 36" fill="none" xmlns="http://www.w3.org/2000/svg">
<rect x="0.15" y="0.15" width="35.7" height="35.7" rx="4.85" fill="white" stroke="#D9D9D9" stroke-width="0.3"/>
<g clip-path="url(#clip0_354_166)">
<path d="M29.9659 19.3842C29.9477 19.8286 29.9009 20.2844 29.7946 20.7198C29.7561 21.1319 29.6356 21.5335 29.5256 21.9331C29.397 22.4208 29.2135 22.8917 29.0279 23.3628C28.8586 23.7544 28.6691 24.1358 28.4713 24.5151C28.2795 24.8517 28.0797 25.1818 27.8636 25.5019C27.6249 25.852 27.3706 26.1892 27.1009 26.5134C26.8213 26.8418 26.5337 27.1659 26.2219 27.4617C25.819 27.8529 25.3905 28.2167 24.939 28.5508C24.5525 28.8393 24.1479 29.1029 23.7277 29.34C23.2566 29.6216 22.7589 29.8531 22.2548 30.0682C21.7176 30.285 21.1673 30.4676 20.6071 30.6148C20.1197 30.7229 19.6318 30.8451 19.1347 30.8839C18.2094 31.0267 17.2626 31.0287 16.3306 30.9389C15.4904 30.8737 14.6584 30.6944 13.8487 30.4558L13.8467 30.4413C9.95609 29.3075 6.75844 26.1038 5.57361 22.231C5.31454 21.397 5.13299 20.5323 5.06572 19.6595C4.96994 18.813 5.0157 17.959 5.0107 17.1088C5.00453 16.4296 5.00387 15.7491 5.0087 15.0672C5.00437 14.3699 5.00437 13.6711 5.0087 12.9709C5.00445 12.3707 5.0067 11.7718 5.0067 11.1721C5.0067 10.5725 5.00245 9.96705 5.0107 9.36538C5.00245 8.76971 5.0087 8.1743 5.0067 7.57888C4.96569 7.13025 5.11273 6.66112 5.45333 6.35729C5.81218 6.03245 6.34232 5.91016 6.80045 6.06921C7.07778 6.16298 7.31835 6.33428 7.56517 6.48732C8.46542 7.07249 9.32916 7.70892 10.1837 8.35735C10.2767 8.30749 10.3659 8.25091 10.4507 8.18805C10.7927 7.94782 11.1485 7.72788 11.5163 7.52937C11.8877 7.32523 12.2696 7.14075 12.6603 6.97671C13.0702 6.80541 13.4903 6.65662 13.9144 6.52408C14.3671 6.39905 14.8219 6.27126 15.2898 6.206C15.7995 6.10466 16.3165 6.04396 16.8358 6.02444C17.4728 5.98466 18.112 5.99897 18.7465 6.06721C19.2289 6.10999 19.7076 6.18662 20.1792 6.29652C23.3934 6.97171 26.2829 9.00478 28.0429 11.7731C28.8282 12.9963 29.3909 14.3489 29.7051 15.7682C29.8234 16.2921 29.9172 16.8265 29.9477 17.3629C30.02 18.0344 30.0261 18.7114 29.9659 19.3842Z" fill="url(#paint0_linear_354_166)"/>
<path d="M22.3468 12.5283C22.8585 12.3849 23.4013 12.3962 23.9065 12.5608C24.5472 12.8064 25.0641 13.3095 25.3444 13.9337C25.553 14.5054 25.5772 15.1446 25.3672 15.7202C25.2156 16.1253 24.9481 16.4727 24.632 16.764C24.3536 17.0389 24.0767 17.3152 23.8015 17.5927C23.5067 17.8876 23.2103 18.1804 22.918 18.4767C22.6354 18.7588 22.3523 19.0391 22.0715 19.3222C21.7634 19.6308 21.4543 19.9376 21.1475 20.2475C20.7974 20.5976 20.4458 20.9462 20.0972 21.2978C19.7661 21.6301 19.4333 21.9602 19.1019 22.2926C18.7706 22.6249 18.4325 22.9605 18.0992 23.2956C17.7923 23.5919 17.5112 23.9193 17.1651 24.1723C16.7304 24.4419 16.2274 24.5807 15.716 24.5724C15.1276 24.5337 14.5472 24.3016 14.124 23.8848C12.8148 22.5771 11.5061 21.2689 10.1979 19.9602C9.87735 19.6436 9.66329 19.2332 9.54776 18.8003C9.42898 18.2037 9.49925 17.5622 9.80558 17.0311C10.0399 16.6175 10.4005 16.2896 10.8106 16.0558C11.261 15.8421 11.762 15.7579 12.2575 15.8125C12.7922 15.8928 13.3078 16.1376 13.6807 16.5317C14.3902 17.2437 15.1006 17.954 15.812 18.6625C16.0278 18.458 16.2346 18.2442 16.4419 18.0306C16.742 17.742 17.0358 17.4474 17.3232 17.1466C17.6073 16.8795 17.8816 16.601 18.1502 16.3184C18.3437 16.1463 18.519 15.9555 18.7021 15.7732C19.0022 15.4811 19.296 15.1833 19.5896 14.8852C19.8699 14.6144 20.1425 14.3363 20.4166 14.06C20.7114 13.7724 20.9987 13.4778 21.2918 13.188C21.5862 12.8873 21.948 12.6613 22.3473 12.5286L22.3468 12.5283Z" fill="white"/>
</g>
<defs>
<linearGradient id="paint0_linear_354_166" x1="24.7155" y1="8.03176" x2="7.03977" y2="25.7077" gradientUnits="userSpaceOnUse">
<stop stop-color="#4CEBB4"/>
<stop offset="1" stop-color="#2E2E74"/>
</linearGradient>
<clipPath id="clip0_354_166">
<rect width="25.007" height="25" fill="white" transform="translate(5 6)"/>
</clipPath>
</defs>
</svg>
