<svg width="67" height="67" viewBox="0 0 67 67" fill="none" xmlns="http://www.w3.org/2000/svg">
<path d="M47.4585 37.4083V45.7833C47.4585 56.95 42.9918 61.4166 31.8252 61.4166H21.2168C10.0502 61.4166 5.5835 56.95 5.5835 45.7833V35.175C5.5835 24.0083 10.0502 19.5416 21.2168 19.5416H29.5918" stroke="white" stroke-width="4" stroke-linecap="round" stroke-linejoin="round"/>
<path d="M47.4585 37.4083H38.5251C31.8251 37.4083 29.5918 35.175 29.5918 28.475V19.5416L47.4585 37.4083Z" stroke="white" stroke-width="4" stroke-linecap="round" stroke-linejoin="round"/>
<path d="M32.3833 5.58337H43.55" stroke="white" stroke-width="4" stroke-linecap="round" stroke-linejoin="round"/>
<path d="M19.5415 13.9584C19.5415 9.32421 23.2823 5.58337 27.9165 5.58337H35.2307" stroke="white" stroke-width="4" stroke-linecap="round" stroke-linejoin="round"/>
<path d="M61.4168 22.3334V39.6138C61.4168 43.9409 57.8993 47.4584 53.5723 47.4584" stroke="white" stroke-width="4" stroke-linecap="round" stroke-linejoin="round"/>
<path d="M61.4165 22.3334H53.0415C46.7603 22.3334 44.6665 20.2396 44.6665 13.9584V5.58337L61.4165 22.3334Z" stroke="white" stroke-width="4" stroke-linecap="round" stroke-linejoin="round"/>
</svg>
