<svg width="36" height="36" viewBox="0 0 36 36" fill="none" xmlns="http://www.w3.org/2000/svg">
<rect x="0.15" y="0.15" width="35.7" height="35.7" rx="7.85" fill="white" stroke="#D9D9D9" stroke-width="0.3"/>
<g clip-path="url(#clip0_354_161)">
<rect width="24.394" height="25" transform="translate(6 6)" fill="white"/>
<path fill-rule="evenodd" clip-rule="evenodd" d="M12.9697 6.00007H23.4243C27.258 6.00007 30.394 9.1316 30.394 12.965V16.3263C26.9573 17.8711 23.4905 25.5007 18.4375 23.8429C18.0213 24.1386 17.0621 25.3574 16.9948 26.2821C15.2451 26.0491 13.2279 24.0439 13.47 21.8816C10.5577 19.7751 12.9627 15.8865 15.272 14.3213C20.2217 10.9667 27.0932 13.8518 23.2709 16.2503C20.9468 17.7087 15.9767 18.6722 16.4935 15.0918C15.1301 15.485 14.2574 18.0272 15.8989 19.3519C14.3782 20.8459 14.6706 23.5921 16.296 24.4938C17.9399 20.2345 23.6615 20.7911 25.9732 15.7068C27.7124 11.8822 25.1338 7.52425 19.9783 8.19369C16.0874 8.69899 12.4403 11.9811 10.6164 15.8738C8.76575 19.8234 9.04116 25.1121 12.8412 27.7775C17.3134 30.9143 22.0746 28.0098 24.9582 24.2137C26.658 21.9763 28.1431 19.4977 30.394 18.066V24.0256C30.394 27.8589 27.2576 31.0001 23.4243 31.0001H12.9697C9.13637 31.0001 6 27.8637 6 24.0303V12.9697C6 9.13637 9.13637 6 12.9697 6V6.00007Z" fill="#EE7F22"/>
</g>
<defs>
<clipPath id="clip0_354_161">
<rect width="24.394" height="25" fill="white" transform="translate(6 6)"/>
</clipPath>
</defs>
</svg>
