<svg width="67" height="67" viewBox="0 0 67 67" fill="none" xmlns="http://www.w3.org/2000/svg">
<path d="M47.4585 51.4505H36.2918L23.8689 59.7137C22.0264 60.9421 19.5418 59.6301 19.5418 57.3968V51.4505C11.1668 51.4505 5.5835 45.8672 5.5835 37.4922V20.742C5.5835 12.367 11.1668 6.78369 19.5418 6.78369H47.4585C55.8335 6.78369 61.4168 12.367 61.4168 20.742V37.4922C61.4168 45.8672 55.8335 51.4505 47.4585 51.4505Z" stroke="white" stroke-width="4" stroke-miterlimit="10" stroke-linecap="round" stroke-linejoin="round"/>
<path d="M33.4998 31.7133V31.1271C33.4998 29.2288 34.6724 28.2237 35.8449 27.4142C36.9895 26.6325 38.1339 25.6275 38.1339 23.785C38.1339 21.2167 36.0681 19.1508 33.4998 19.1508C30.9315 19.1508 28.8657 21.2167 28.8657 23.785" stroke="white" stroke-width="4" stroke-linecap="round" stroke-linejoin="round"/>
<path d="M33.4873 38.3855H33.5124" stroke="white" stroke-width="4" stroke-linecap="round" stroke-linejoin="round"/>
</svg>
