<svg width="36" height="36" viewBox="0 0 36 36" fill="none" xmlns="http://www.w3.org/2000/svg">
<rect x="0.15" y="0.15" width="35.7" height="35.7" rx="4.85" fill="white" stroke="#D9D9D9" stroke-width="0.3"/>
<g clip-path="url(#clip0_354_173)">
<path d="M18.2347 5H18.3222C18.3461 7.12454 18.3098 11.386 18.3098 11.386C16.2782 10.2465 14.2327 9.13373 12.2021 7.99066C13.5323 7.23459 14.8635 6.48033 16.1957 5.7279C16.8266 5.37191 17.5048 5.06613 18.2342 5H18.2347Z" fill="#B8CE01"/>
<path d="M18.317 5.00002H18.4662C19.2562 5.07112 19.9712 5.4475 20.6509 5.82935C21.9184 6.54432 23.1843 7.26228 24.4485 7.98322C22.41 9.11336 20.3491 10.2614 18.3076 11.3881C18.2902 9.26352 18.3389 7.12356 18.315 4.99902L18.317 5.00002Z" fill="#7DB425"/>
<path d="M12.2035 7.98865L18.3112 11.384L12.1613 14.9768C12.1613 14.9768 12.1583 12.6971 12.1653 11.5605C12.1598 10.3802 12.2035 7.98865 12.2035 7.98865Z" fill="#F6A925"/>
<path d="M24.4554 7.98315L24.4728 7.9926C24.4679 10.1102 24.4728 12.2278 24.4728 14.3453C24.4694 14.5527 24.4674 14.9803 24.4674 14.9803L18.3115 11.3865C18.3115 11.3865 22.4174 9.11478 24.4574 7.98315H24.4554Z" fill="#35AC9D"/>
<path d="M24.4682 7.99365C25.8245 8.76481 27.1714 9.55287 28.5189 10.3389C29.1707 10.7049 29.8613 11.1106 30.2173 11.8002C28.309 12.8568 24.4657 14.9823 24.4657 14.9823C24.4657 14.9823 24.4627 14.5542 24.4657 14.3469C24.4657 12.2291 24.4657 10.1116 24.4657 7.99415L24.4682 7.99365Z" fill="#59D6BD"/>
<path d="M8.31203 10.2206C9.58735 9.47477 12.1996 7.98914 12.1996 7.98914L12.1653 14.9768C12.1653 14.9768 8.33689 12.8662 6.43311 11.8116C6.84777 11.0723 7.59656 10.6243 8.31203 10.2206Z" fill="#EF7414"/>
<path d="M18.3055 11.3861L24.4614 14.9809C24.4614 14.9809 22.4805 16.0747 21.4971 16.6037C20.446 17.2004 18.3105 18.3847 18.3105 18.3847L12.1621 14.9769L18.3055 11.3861Z" fill="white"/>
<path d="M6 14.596C6.00547 13.6597 5.98856 12.6643 6.43058 11.8116C8.33684 12.8662 12.1613 14.9768 12.1613 14.9768C10.1044 16.1661 8.05742 17.3733 6 18.5641C6 17.2416 6 15.9195 6 14.596Z" fill="#E74B50"/>
<path d="M30.2169 11.8002C30.5918 12.5012 30.6465 13.3166 30.6256 14.0967V18.577L24.4663 14.9818C24.4663 14.9818 28.3087 12.8557 30.2169 11.8002Z" fill="#794387"/>
<path d="M12.1611 14.9768C12.1706 14.9728 18.3095 18.3846 18.3095 18.3846C18.3095 18.3846 18.3095 21.9491 18.313 23.6927C18.323 24.2541 18.3095 25.3887 18.3095 25.3887C16.2576 24.2561 14.2166 23.1135 12.1641 21.9809L12.1606 21.9655V14.9768H12.1611Z" fill="#E4E4E4"/>
<path d="M6 18.5641C8.05593 17.3708 10.1029 16.1661 12.1598 14.9768C12.1578 17.3067 12.1578 19.6362 12.1598 21.9655C11.8441 21.8337 11.5567 21.6458 11.2554 21.4862C9.50527 20.5231 7.7591 19.5376 6 18.584V18.5641Z" fill="#794387"/>
<path d="M24.4654 14.9818V19.2667C24.459 20.1751 24.4883 21.08 24.4654 21.9879C22.4165 23.1016 18.3091 25.3887 18.3091 25.3887C18.3091 25.3887 18.3225 24.2541 18.3126 23.6928C18.3126 21.9491 18.3091 18.3847 18.3091 18.3847L24.4654 14.9818Z" fill="#F1F1F1"/>
<path d="M24.4658 14.9818C24.4658 14.9818 30.6251 18.5686 30.6251 18.5771C28.5781 19.7117 24.4663 21.9879 24.4663 21.9879C24.4892 21.08 24.4598 20.1751 24.4663 19.2667V14.9818H24.4658Z" fill="#4C3683"/>
<path d="M6 18.584C7.7581 19.5391 9.50179 20.5231 11.2554 21.4876C11.5567 21.6472 11.8441 21.8357 12.1598 21.9669L12.1633 21.9824C10.2753 23.0838 8.38656 24.1858 6.4972 25.2882C6.29832 24.9874 6.19888 24.6324 6.12579 24.2814C6.00696 23.6947 6 23.0981 6 22.5014V18.5835V18.584Z" fill="#4C3683"/>
<path d="M30.6247 18.577C30.6277 19.9518 30.6247 21.3265 30.6247 22.7013C30.6446 23.5828 30.6187 24.5221 30.1489 25.2992C28.4484 24.3048 24.4644 21.9878 24.4644 21.9878C24.4644 21.9878 28.5777 19.7116 30.6247 18.577Z" fill="#E74B50"/>
<path d="M6.49707 25.2859C8.38643 24.1827 10.2758 23.0811 12.1652 21.981C12.1527 24.3093 12.1691 26.6382 12.1572 28.9661C10.8197 28.212 9.48575 27.452 8.15524 26.686C7.53224 26.318 6.89483 25.9088 6.49707 25.2859Z" fill="#0F68A0"/>
<path d="M12.1652 21.981C14.2176 23.1136 16.2586 24.2561 18.3106 25.3888C16.2621 26.5821 12.1602 28.9686 12.1572 28.9661C12.1692 26.6382 12.1528 24.3093 12.1652 21.981Z" fill="#49BDCA"/>
<path d="M24.456 21.9924L24.4659 21.9879C24.4719 24.3168 24.4535 26.6462 24.4754 28.9751L24.4599 28.9825C22.8361 28.0125 21.1928 27.0733 19.5615 26.1147C19.1508 25.881 18.3096 25.3888 18.3096 25.3888C18.3096 25.3888 22.4075 23.1086 24.456 21.9924Z" fill="#F6A925"/>
<path d="M24.466 21.9878C24.6474 22.1116 28.45 24.3058 30.1505 25.2992C29.9088 25.7119 29.526 26.0147 29.1402 26.2856C28.5177 26.7043 27.8534 27.0548 27.206 27.4317C26.2957 27.9463 25.3913 28.4713 24.4754 28.973C24.4535 26.6441 24.4719 24.3147 24.466 21.9858V21.9878Z" fill="#EF7414"/>
<path d="M18.3096 25.3887V31.998C17.8 31.9229 17.2446 31.8055 16.7931 31.5465C15.2478 30.6883 13.6971 29.8351 12.1562 28.965C14.2037 27.7718 16.2611 26.5844 18.3096 25.3887Z" fill="#7DB425"/>
<path d="M18.3096 25.3887C18.3096 25.3887 19.1508 25.8809 19.5615 26.1146C21.1928 27.0732 22.8361 28.0124 24.4599 28.9824C22.8759 29.8588 21.2919 30.7372 19.7082 31.6176C19.3123 31.8366 18.8733 31.9664 18.4219 31.998H18.3096V25.3887Z" fill="#B8CE01"/>
</g>
<defs>
<clipPath id="clip0_354_173">
<rect width="24.6298" height="27" fill="white" transform="translate(6 5)"/>
</clipPath>
</defs>
</svg>
