<svg width="36" height="36" viewBox="0 0 36 36" fill="none" xmlns="http://www.w3.org/2000/svg">
<rect x="0.15" y="0.15" width="35.7" height="35.7" rx="4.85" fill="white" stroke="#D9D9D9" stroke-width="0.3"/>
<path d="M29.3333 17.6667C29.3333 24.1096 24.1096 29.3333 17.6667 29.3333C11.2238 29.3333 6 24.1096 6 17.6667C6 11.2238 11.2238 6 17.6667 6C24.1096 6 29.3333 11.2238 29.3333 17.6667Z" fill="url(#paint0_linear_354_205)"/>
<path opacity="0.05" d="M9.56943 17.3552C14.3265 15.1998 19.9137 12.8612 20.7741 12.5229C22.6711 11.7768 23.4983 12.5392 23.3688 13.7555C23.2095 15.2459 22.4547 19.583 21.9903 22.6904C21.7185 24.5086 20.7338 25.0657 19.6226 24.3605C18.7797 23.8255 15.8817 21.928 15.1193 21.2793C14.5995 20.8371 14.2373 20.3413 14.6059 19.8361C14.7138 19.6885 14.9898 19.391 15.1432 19.2429C15.9126 18.4974 15.8088 18.337 14.8783 19.0025C14.7675 19.0819 14.1247 19.548 13.8604 19.7241C13.2129 20.1558 12.6173 20.1791 11.6076 19.8361C10.7816 19.5555 9.98826 19.3391 9.48776 19.1227C8.79651 18.8235 8.53168 17.8254 9.56943 17.3552Z" fill="black"/>
<path opacity="0.07" d="M9.98774 17.4281C14.4047 15.4535 19.8367 13.1907 20.6312 12.8705C22.5352 12.1017 23.2358 12.5578 23.0311 14.0436C22.8409 15.4191 22.166 19.6751 21.6929 22.5282C21.4141 24.2076 20.5997 24.5774 19.5392 23.8914C18.8748 23.4632 16.2008 21.7016 15.5522 21.1888C15.0505 20.7927 14.5307 20.3354 15.138 19.6733C15.341 19.4522 16.4622 18.3702 17.3004 17.5652C17.7863 17.0979 17.6131 16.8675 17.0268 17.2688C15.9517 18.0056 14.193 19.1717 13.8792 19.3834C13.2812 19.7859 12.7195 19.8827 11.7418 19.5753C10.9712 19.3327 10.2269 19.0976 9.83899 18.9465C8.97215 18.6105 8.96049 17.8872 9.98774 17.4281Z" fill="black"/>
<path d="M10.406 17.5016C14.4835 15.7078 19.7598 13.5209 20.4883 13.2182C22.3988 12.426 22.985 12.5777 22.6928 14.3323C22.4828 15.5935 21.8773 19.7684 21.3943 22.3672C21.1078 23.9083 20.465 24.0909 19.4547 23.4242C18.9688 23.1033 16.5158 21.4811 15.9833 21.1002C15.4973 20.7531 14.8271 20.3354 15.6677 19.5129C15.9669 19.2201 17.9275 17.3476 19.4553 15.8904C19.6553 15.6991 19.4039 15.3847 19.1729 15.5381C17.1138 16.9037 14.2589 18.7989 13.8955 19.0457C13.3466 19.4184 12.8193 19.5893 11.8731 19.3175C11.1579 19.1122 10.4597 18.8672 10.1878 18.7738C9.14075 18.4145 9.38925 17.949 10.406 17.5016Z" fill="white"/>
<defs>
<linearGradient id="paint0_linear_354_205" x1="9.41717" y1="9.41717" x2="25.9162" y2="25.9162" gradientUnits="userSpaceOnUse">
<stop stop-color="#33BEF0"/>
<stop offset="1" stop-color="#0A85D9"/>
</linearGradient>
</defs>
</svg>
