<svg width="36" height="36" viewBox="0 0 36 36" fill="none" xmlns="http://www.w3.org/2000/svg">
<rect x="0.15" y="0.15" width="35.7" height="35.7" rx="4.85" fill="white" stroke="#D9D9D9" stroke-width="0.3"/>
<path d="M6.94092 30.1623L8.56854 24.2203C7.56442 22.4815 7.03638 20.5083 7.03698 18.4874C7.04 12.1647 12.1851 7.02087 18.5083 7.02087C21.5769 7.02208 24.4563 8.21652 26.6222 10.3837C28.7876 12.5514 29.9802 15.4321 29.979 18.4964C29.9766 24.819 24.8303 29.9635 18.5083 29.9635H18.5035C16.584 29.9629 14.6972 29.4814 13.0219 28.5673L6.94092 30.1623Z" fill="white"/>
<path d="M6.94098 30.4643C6.86123 30.4643 6.7839 30.4329 6.7265 30.3749C6.65098 30.2982 6.62138 30.1864 6.64977 30.0831L8.24417 24.2613C7.25575 22.5056 6.73435 20.5119 6.73556 18.4879C6.73798 11.998 12.019 6.71875 18.5084 6.71875C21.6561 6.71996 24.6135 7.94581 26.8362 10.1704C29.0589 12.3955 30.2824 15.3523 30.2811 18.4964C30.2787 24.9857 24.9971 30.2655 18.5084 30.2655C16.5817 30.2649 14.6755 29.7895 12.9839 28.8899L7.01771 30.454C6.99233 30.4613 6.96696 30.4643 6.94098 30.4643Z" fill="white"/>
<path d="M18.5082 7.02079C21.5768 7.022 24.4562 8.21644 26.6222 10.3836C28.7875 12.5513 29.9801 15.432 29.9789 18.4963C29.9765 24.8189 24.8302 29.9634 18.5082 29.9634H18.5034C16.5839 29.9628 14.6971 29.4813 13.0218 28.5672L6.94084 30.1622L8.56847 24.2202C7.56434 22.4814 7.0363 20.5082 7.0369 18.4873C7.03992 12.1647 12.185 7.02079 18.5082 7.02079ZM18.5082 6.41663C11.8527 6.41663 6.43576 11.8312 6.43274 18.4873C6.43213 20.5215 6.94567 22.5261 7.91959 24.3006L6.35782 30.0033C6.30103 30.2117 6.35903 30.4341 6.51128 30.5875C6.62607 30.7035 6.78134 30.767 6.94084 30.767C6.9922 30.767 7.04355 30.7603 7.0943 30.747L12.9469 29.2124C14.6554 30.0994 16.5707 30.5676 18.5034 30.5682C25.1637 30.5682 30.5807 25.153 30.5837 18.4969C30.5849 15.2713 29.33 12.2384 27.0505 9.95704C24.7698 7.6751 21.7363 6.41783 18.5082 6.41663Z" fill="#CFD8DC"/>
<path d="M25.2523 11.7526C23.4519 9.95101 21.0588 8.95837 18.5116 8.95776C13.2529 8.95776 8.97605 13.2328 8.97363 18.4879C8.97303 20.2889 9.4769 22.0422 10.4315 23.5605L10.6587 23.9212L9.69501 27.438L13.3037 26.4919L13.6523 26.6985C15.1156 27.5673 16.794 28.0265 18.505 28.0271H18.5086C23.7636 28.0271 28.0405 23.7514 28.0423 18.4957C28.0429 15.9492 27.0527 13.5543 25.2523 11.7526Z" fill="#40C351"/>
<path fill-rule="evenodd" clip-rule="evenodd" d="M15.6409 13.6938C15.4265 13.2166 15.2005 13.2069 14.9957 13.1984C14.8283 13.1912 14.6374 13.1918 14.4465 13.1918C14.2556 13.1918 13.945 13.2637 13.6822 13.5507C13.4194 13.8376 12.6787 14.5306 12.6787 15.9407C12.6787 17.3509 13.7058 18.7139 13.849 18.9048C13.9922 19.0957 15.8319 22.0821 18.7451 23.2312C21.166 24.1858 21.659 23.9961 22.1847 23.9484C22.7103 23.9006 23.8806 23.2554 24.1192 22.586C24.3579 21.9166 24.3579 21.3432 24.2866 21.2236C24.2147 21.104 24.0238 21.0327 23.7374 20.8889C23.451 20.7451 22.0415 20.0521 21.7787 19.9566C21.5159 19.8612 21.3249 19.8135 21.1334 20.1004C20.9425 20.3868 20.3933 21.0327 20.226 21.2236C20.0586 21.4151 19.8913 21.4393 19.6049 21.2955C19.3185 21.1517 18.3953 20.8496 17.3 19.8733C16.4481 19.1138 15.8729 18.1756 15.7056 17.8886C15.5382 17.6022 15.6875 17.4469 15.8313 17.3037C15.9599 17.1751 16.1176 16.969 16.2614 16.8017C16.4046 16.6343 16.4523 16.5147 16.5478 16.3238C16.6433 16.1323 16.5955 15.9649 16.5236 15.8217C16.4529 15.6779 15.8959 14.2606 15.6409 13.6938Z" fill="white"/>
</svg>
